# xmcd
#
# Track frame offsets:
#	150
#	11706
#	22902
#	36485
#	41048
#	52572
#	67510
#	77055
#	89923
#	100343
#	110066
#	122598
#	137631
#	149893
#	159621
#	172645
#	180906
#	189715
#	202886
#	215170
#
# Disc length: 3050 seconds
#
# Revision: 0
# Processed by: cddbd v1.4PL0 Copyright (c) Steve Scherf et al.
# Submitted via: MusicWizard 6.0.0
#
DISCID=140be814
DTITLE=Various Artist - Country Hits CD 08
DYEAR=1900
DGENRE=Country
TTITLE0=Twitty Conway - Sitting In A Dim Cafe
TTITLE1=Laine, Frankie - Love Is A Golden Ring
TTITLE2=Murray, Anne - David's Song
TTITLE3=Wilis, Bob - Bob's Schottische
TTITLE4=Fairchild, Barbara - You Can't Put The City
TTITLE5=Jones, George - I Always Get Lucky With You
TTITLE6=Shake 'Em Up, Roll 'Em - Stonewall Jackson
TTITLE7=Haggard, Merle - Okie From Muskogee
TTITLE8=Mandrell, Barbara - This Time I Almost Made It
TTITLE9=Perkins, Carl - This Old House
TTITLE10=West, Dottie - Here Comes My Baby Again
TTITLE11=Williams, Don - All I'll Missing Is You
TTITLE12=Raven, Eddie - Falls To Do
TTITLE13=Husky, Ferlin - Looking Thru A Window
TTITLE14=Fender, Freddy - Girl Who Waits On Tables
TTITLE15=Watson, Gene - Drinkin' My Way Back Home
TTITLE16=Jones, George - Love Bug
TTITLE17=Yarborough, Glen - Capitol Ship
TTITLE18=Lee, Johnny - This Time
TTITLE19=Gilley, Mickey - I'll Make It All Up To You
EXTD=
EXTT0=
EXTT1=
EXTT2=
EXTT3=
EXTT4=
EXTT5=
EXTT6=
EXTT7=
EXTT8=
EXTT9=
EXTT10=
EXTT11=
EXTT12=
EXTT13=
EXTT14=
EXTT15=
EXTT16=
EXTT17=
EXTT18=
EXTT19=
PLAYORDER=
